<?xml version="1.0" encoding="UTF-8" standalone="no"?>
<svg
   xmlns:dc="http://purl.org/dc/elements/1.1/"
   xmlns:cc="http://creativecommons.org/ns#"
   xmlns:rdf="http://www.w3.org/1999/02/22-rdf-syntax-ns#"
   xmlns:svg="http://www.w3.org/2000/svg"
   xmlns="http://www.w3.org/2000/svg"
   xmlns:sodipodi="http://sodipodi.sourceforge.net/DTD/sodipodi-0.dtd"
   xmlns:inkscape="http://www.inkscape.org/namespaces/inkscape"
   height="32"
   width="32"
   version="1.1"
   id="svg33"
   sodipodi:docname="close-window-red.svg"
   inkscape:version="0.92.2 (unknown)">
  <metadata
     id="metadata37">
    <rdf:RDF>
      <cc:Work
         rdf:about="">
        <dc:format>image/svg+xml</dc:format>
        <dc:type
           rdf:resource="http://purl.org/dc/dcmitype/StillImage" />
        <dc:title></dc:title>
      </cc:Work>
    </rdf:RDF>
  </metadata>
  <sodipodi:namedview
     pagecolor="#ffffff"
     bordercolor="#666666"
     borderopacity="1"
     objecttolerance="10"
     gridtolerance="10"
     guidetolerance="10"
     inkscape:pageopacity="0"
     inkscape:pageshadow="2"
     inkscape:window-width="1920"
     inkscape:window-height="1007"
     id="namedview35"
     showgrid="false"
     inkscape:zoom="13.171875"
     inkscape:cx="5.4650067"
     inkscape:cy="14.772026"
     inkscape:window-x="0"
     inkscape:window-y="0"
     inkscape:window-maximized="1"
     inkscape:current-layer="svg33" />
  <defs
     id="defs21">
    <filter
       id="c"
       height="1.4181"
       width="1.4198"
       y="-.20904"
       x="-.20990"
       color-interpolation-filters="sRGB">
      <feGaussianBlur
         stdDeviation="1.3282637"
         id="feGaussianBlur10" />
    </filter>
    <filter
       id="b"
       height="1.4261"
       width="1.426"
       y="-.21306"
       x="-.21298"
       color-interpolation-filters="sRGB">
      <feGaussianBlur
         stdDeviation="0.71020915"
         id="feGaussianBlur13" />
    </filter>
    <radialGradient
       id="d"
       gradientUnits="userSpaceOnUse"
       cy="5.8191"
       cx="7.6583"
       gradientTransform="matrix(1.4402,0,0,1.4461,4.971,2.8359)"
       r="8.6929">
      <stop
         stop-color="#7b7b7b"
         offset="0"
         id="stop16" />
      <stop
         stop-color="#101010"
         offset="1"
         id="stop18" />
    </radialGradient>
  </defs>
  <path
     d="M 0.00887561,9.3224e-4 H 4.0077711 c 0.041227,-4.7998e-4 0.083136,-0.0018332 0.1249655,0 1.0195183,0.04483593 2.0388767,0.51427933 2.7492406,1.24990126 L 16.003858,10.374513 25.251303,1.2508335 C 26.31349,0.32890646 27.03749,0.02893001 28.000546,9.3224e-4 h 3.998895 V 4.0006163 c 0,1.1457895 -0.137356,2.2024259 -0.999726,2.999723 l -9.121879,9.1236797 8.997516,8.999284 C 31.627861,25.875924 32,26.936961 32,27.998075 v 3.999684 h -3.998895 c -1.060867,-4.2e-5 -2.121734,-0.372368 -2.874166,-1.124871 L 16.010256,21.754411 6.8855765,30.878087 C 6.1328243,31.631548 5.0721573,32 4.0109702,32 H 0.01247458 V 28.000317 C 0.01246251,26.939239 0.38461179,25.878165 1.137124,25.125543 L 10.259005,16.128257 1.137124,7.0045789 C 0.29419685,6.2264003 -0.07530114,5.1281273 0.01267468,4.0051359 V 0.00545191 Z"
     id="path31"
     inkscape:connector-curvature="0"
     style="fill:#c83737;stroke-width:3.99928927" />
</svg>
